<svg id="Capa_1" data-name="Capa 1" xmlns="http://www.w3.org/2000/svg" viewBox="0 0 400 400"><title>Tecnoblack</title><polygon points="206.631 58.2 394.387 7.375 367.085 80.042 275.516 106.504 275.517 247.217 206.631 293.841 206.631 58.2" style="fill:#fff"/><path d="M394.387,7.375l-27.3,72.667L275.516,106.5V247.217l-68.886,46.624V58.2L394.387,7.375M397,5l-3.033.821L206.21,56.646l-1.19.322V296.875l2.513-1.7,68.886-46.624.708-.479V107.715l90.4-26.126.776-.225.284-.756L395.9,7.942,397,5Z"/><circle cx="218.022" cy="70.902" r="8.16" style="fill:#fff"/><path d="M218.022,63.815a7.087,7.087,0,1,1-7.087,7.087,7.095,7.095,0,0,1,7.087-7.087m0-1.073a8.16,8.16,0,1,0,8.16,8.16,8.16,8.16,0,0,0-8.16-8.16Z"/><circle cx="250.024" cy="155.422" r="8.16" style="fill:#fff"/><path d="M250.026,148.335h0a7.088,7.088,0,1,1-5.2,2.267,7.06,7.06,0,0,1,5.2-2.267m0-1.073a8.16,8.16,0,1,0,5.549,2.179,8.137,8.137,0,0,0-5.549-2.179Z"/><circle cx="222.034" cy="258.699" r="11.013" style="fill:#fff"/><path d="M222.037,248.76h0a9.939,9.939,0,1,1-7.289,3.178,9.9,9.9,0,0,1,7.289-3.178m0-1.074a11.013,11.013,0,1,0,7.489,2.941,10.982,10.982,0,0,0-7.489-2.941Z"/><circle cx="339.915" cy="58.661" r="8.16" style="fill:#fff"/><path d="M339.915,51.575a7.087,7.087,0,1,1-7.087,7.086,7.095,7.095,0,0,1,7.087-7.086m0-1.074a8.161,8.161,0,1,0,8.16,8.16,8.16,8.16,0,0,0-8.16-8.16Z"/><line x1="395.039" y1="6.993" x2="345.75" y2="52.962" style="fill:#fff"/><rect x="336.694" y="29.172" width="67.4" height="1.611" transform="translate(79.044 260.641) rotate(-42.996)"/><line x1="332.936" y1="55.366" x2="225.186" y2="73.516" style="fill:#fff"/><rect x="224.426" y="63.636" width="109.27" height="1.61" transform="translate(-6.838 47.428) rotate(-9.597)"/><line x1="220.463" y1="78.116" x2="248.037" y2="147.512" style="fill:#fff"/><rect x="233.445" y="75.477" width="1.611" height="74.674" transform="translate(-25.102 94.471) rotate(-21.67)"/><line x1="250.871" y1="163.045" x2="218.994" y2="248.768" style="fill:#fff"/><rect x="189.204" y="205.101" width="91.458" height="1.611" transform="translate(-39.992 354.253) rotate(-69.584)"/><line x1="229.757" y1="265.568" x2="248.411" y2="267.029" style="fill:#fff"/><rect x="238.278" y="256.942" width="1.611" height="18.712" transform="translate(-45.048 483.887) rotate(-85.527)"/><polygon points="4.643 7.375 192.26 54.449 192.26 296.826 218.022 315.867 218.022 389.794 125.614 322.028 125.614 101.368 33.765 79.062 4.643 7.375"/><path d="M218.826,391.382l-94.017-68.944V102L33.175,79.746l-.156-.382L3.3,6.209,193.065,53.821v242.6l25.761,19.04ZM126.419,321.62l90.8,66.584v-71.93l-25.761-19.041V55.077L5.985,8.542,34.356,78.377l92.063,22.358Z" style="fill:#fff"/><circle cx="177.294" cy="70.902" r="8.16"/><path d="M177.294,62.742a8.16,8.16,0,1,1-8.161,8.16,8.16,8.16,0,0,1,8.161-8.16m0-1.611a9.771,9.771,0,1,0,9.77,9.771,9.782,9.782,0,0,0-9.77-9.771Z" style="fill:#fff"/><circle cx="145.292" cy="155.422" r="8.16"/><path d="M145.29,147.262a8.161,8.161,0,1,1-5.549,2.179,8.141,8.141,0,0,1,5.549-2.179m0-1.61a9.77,9.77,0,1,0,7.163,3.124,9.738,9.738,0,0,0-7.163-3.124Z" style="fill:#fff"/><circle cx="156.983" cy="267.029" r="6.842"/><path d="M156.982,260.187a6.842,6.842,0,1,1-4.653,1.827,6.82,6.82,0,0,1,4.653-1.827m0-1.61a8.453,8.453,0,1,0,6.2,2.7,8.425,8.425,0,0,0-6.2-2.7Z" style="fill:#fff"/><circle cx="55.4" cy="58.661" r="10.898"/><path d="M55.4,47.763a10.9,10.9,0,1,1-10.9,10.9,10.9,10.9,0,0,1,10.9-10.9m0-1.61A12.509,12.509,0,1,0,67.909,58.661,12.522,12.522,0,0,0,55.4,46.153Z" style="fill:#fff"/><line x1="5.142" y1="7.663" x2="46.924" y2="50.321"/><rect x="25.228" y="-0.863" width="1.61" height="59.712" transform="translate(-12.852 26.497) rotate(-44.407)" style="fill:#fff"/><line x1="66.892" y1="55.366" x2="168.61" y2="73.249"/><rect x="116.946" y="12.669" width="1.609" height="103.278" transform="translate(34.026 169.145) rotate(-80.029)" style="fill:#fff"/><line x1="174.384" y1="79.295" x2="147.279" y2="147.512"/><rect x="124.128" y="112.598" width="73.406" height="1.611" transform="translate(-3.985 220.933) rotate(-68.309)" style="fill:#fff"/><line x1="144.444" y1="163.045" x2="154.89" y2="259.749"/><rect x="148.862" y="162.764" width="1.611" height="97.267" transform="matrix(0.994, -0.107, 0.107, 0.994, -21.838, 17.296)" style="fill:#fff"/><circle cx="176.572" cy="322.678" r="12.73"/><path d="M176.575,309.948a12.73,12.73,0,1,1-9.334,4.071,12.686,12.686,0,0,1,9.334-4.071m0-1.61h0a14.341,14.341,0,1,0,9.751,3.829,14.394,14.394,0,0,0-9.751-3.829Z" style="fill:#fff"/><line x1="188.729" y1="328.469" x2="218.022" y2="348.63"/><rect x="202.571" y="320.77" width="1.609" height="35.559" transform="translate(-190.809 314.132) rotate(-55.461)" style="fill:#fff"/><line x1="156.983" y1="274.284" x2="171.298" y2="310.302"/><rect x="163.335" y="272.914" width="1.611" height="38.759" transform="translate(-96.344 81.283) rotate(-21.673)" style="fill:#fff"/></svg>